<svg width="180" height="180" viewBox="0 0 180 180" xmlns="http://www.w3.org/2000/svg">
  <defs>
    <linearGradient id="bg" x1="0%" y1="0%" x2="100%" y2="100%">
      <stop offset="0%" style="stop-color:#1e1b4b"/>
      <stop offset="50%" style="stop-color:#312e81"/>
      <stop offset="100%" style="stop-color:#4c1d95"/>
    </linearGradient>
  </defs>

  <!-- Background with rounded corners -->
  <rect width="180" height="180" rx="40" ry="40" fill="url(#bg)"/>

  <!-- Star cluster centered and scaled -->
  <g transform="translate(22.5, 22.5) scale(4.21875)">
    <!-- Main star -->
    <path d="M16 4 l1.5 5 l5 1.5 l-5 1.5 l-1.5 5 l-1.5-5 l-5-1.5 l5-1.5 z" fill="#a78bfa"/>
    <!-- Upper right star -->
    <path d="M24 10 l0.7 2.5 l2.5 0.7 l-2.5 0.7 l-0.7 2.5 l-0.7-2.5 l-2.5-0.7 l2.5-0.7 z" fill="#c4b5fd"/>
    <!-- Lower left star -->
    <path d="M8 18 l0.7 2.5 l2.5 0.7 l-2.5 0.7 l-0.7 2.5 l-0.7-2.5 l-2.5-0.7 l2.5-0.7 z" fill="#ddd6fe"/>
    <!-- Lower center star -->
    <path d="M17 22 l0.8 3 l3 0.8 l-3 0.8 l-0.8 3 l-0.8-3 l-3-0.8 l3-0.8 z" fill="#e9d5ff"/>
  </g>
</svg>
